<svg width="41" height="41" viewBox="0 0 41 41" fill="none" xmlns="http://www.w3.org/2000/svg">
  <path d="M20.5 5.125C20.9184 5.12506 21.3223 5.27868 21.635 5.55672C21.9477 5.83477 22.1474 6.2179 22.1964 6.63346L22.2083 6.83333V8.54167H24.7708C28.1324 8.54252 31.359 9.86445 33.7548 12.2224C36.1507 14.5804 37.5239 17.7854 37.5784 21.1466C37.6329 24.5077 36.3642 27.7556 34.046 30.1899C31.7278 32.6243 28.5457 34.0501 25.186 34.1598L24.7708 34.1667H16.2292C12.8676 34.1658 9.64102 32.8439 7.24515 30.4859C4.84928 28.128 3.47607 24.9229 3.42161 21.5618C3.36714 18.2006 4.63579 14.9527 6.954 12.5184C9.27221 10.084 12.4543 8.65827 15.814 8.5485L16.2292 8.54167H18.7917V6.83333C18.7917 6.38026 18.9716 5.94573 19.292 5.62536C19.6124 5.30498 20.0469 5.125 20.5 5.125ZM26.4792 17.0833C26.0261 17.0833 25.5916 17.2633 25.2712 17.5837C24.9508 17.9041 24.7708 18.3386 24.7708 18.7917V19.6458H23.9167C23.4636 19.6458 23.0291 19.8258 22.7087 20.1462C22.3883 20.4666 22.2083 20.9011 22.2083 21.3542C22.2083 21.8072 22.3883 22.2418 22.7087 22.5621C23.0291 22.8825 23.4636 23.0625 23.9167 23.0625H24.7708V23.9167C24.7708 24.3697 24.9508 24.8043 25.2712 25.1246C25.5916 25.445 26.0261 25.625 26.4792 25.625C26.9322 25.625 27.3668 25.445 27.6871 25.1246C28.0075 24.8043 28.1875 24.3697 28.1875 23.9167V23.0625H29.0417C29.4947 23.0625 29.9293 22.8825 30.2496 22.5621C30.57 22.2418 30.75 21.8072 30.75 21.3542C30.75 20.9011 30.57 20.4666 30.2496 20.1462C29.9293 19.8258 29.4947 19.6458 29.0417 19.6458H28.1875V18.7917C28.1875 18.3386 28.0075 17.9041 27.6871 17.5837C27.3668 17.2633 26.9322 17.0833 26.4792 17.0833ZM14.5208 17.0833C13.3881 17.0833 12.3018 17.5333 11.5009 18.3342C10.7 19.1352 10.25 20.2215 10.25 21.3542C10.25 22.4869 10.7 23.5732 11.5009 24.3741C12.3018 25.175 13.3881 25.625 14.5208 25.625C15.6535 25.625 16.7398 25.175 17.5408 24.3741C18.3417 23.5732 18.7917 22.4869 18.7917 21.3542C18.7917 20.2215 18.3417 19.1352 17.5408 18.3342C16.7398 17.5333 15.6535 17.0833 14.5208 17.0833ZM14.5208 20.5C14.7474 20.5 14.9646 20.59 15.1248 20.7502C15.285 20.9104 15.375 21.1276 15.375 21.3542C15.375 21.5807 15.285 21.798 15.1248 21.9582C14.9646 22.1183 14.7474 22.2083 14.5208 22.2083C14.2943 22.2083 14.077 22.1183 13.9168 21.9582C13.7567 21.798 13.6667 21.5807 13.6667 21.3542C13.6667 21.1276 13.7567 20.9104 13.9168 20.7502C14.077 20.59 14.2943 20.5 14.5208 20.5Z" fill="white" />
</svg>